<svg width="307" height="92" viewBox="0 0 307 92" fill="none" xmlns="http://www.w3.org/2000/svg">
<g filter="url(#filter0_d_178_801)">
<path d="M113.182 44.496C113.182 43.616 113.518 42.8 114.19 42.048C114.862 41.296 115.438 40.824 115.918 40.632L116.278 41.136C115.798 41.392 115.39 41.76 115.054 42.24C114.734 42.72 114.55 43.216 114.502 43.728C114.63 43.648 114.83 43.608 115.102 43.608C115.39 43.608 115.638 43.736 115.846 43.992C116.054 44.232 116.158 44.552 116.158 44.952C116.158 45.352 116.006 45.68 115.702 45.936C115.414 46.176 115.054 46.296 114.622 46.296C114.19 46.296 113.838 46.144 113.566 45.84C113.31 45.536 113.182 45.088 113.182 44.496ZM110.758 46.296C110.342 46.296 109.998 46.072 109.726 45.624C109.454 45.176 109.318 44.68 109.318 44.136C109.318 43.592 109.43 43.112 109.654 42.696C109.878 42.264 110.158 41.912 110.494 41.64C111.134 41.128 111.654 40.792 112.054 40.632L112.414 41.136C111.934 41.392 111.526 41.76 111.19 42.24C110.87 42.72 110.686 43.216 110.638 43.728C110.766 43.648 110.966 43.608 111.238 43.608C111.526 43.608 111.774 43.736 111.982 43.992C112.19 44.232 112.294 44.552 112.294 44.952C112.294 45.352 112.142 45.68 111.838 45.936C111.55 46.176 111.19 46.296 110.758 46.296ZM127.164 41.52C126.252 41.52 125.428 41.68 124.692 42C123.956 42.304 123.332 42.76 122.82 43.368C122.308 43.96 121.916 44.688 121.644 45.552C121.372 46.4 121.236 47.36 121.236 48.432C121.236 49.84 121.452 51.064 121.884 52.104C122.332 53.144 122.988 53.944 123.852 54.504C124.732 55.064 125.828 55.344 127.14 55.344C127.892 55.344 128.604 55.28 129.276 55.152C129.948 55.024 130.604 54.864 131.244 54.672V56.544C130.604 56.784 129.94 56.96 129.252 57.072C128.58 57.184 127.772 57.24 126.828 57.24C125.084 57.24 123.628 56.88 122.46 56.16C121.292 55.44 120.412 54.416 119.82 53.088C119.244 51.76 118.956 50.2 118.956 48.408C118.956 47.112 119.132 45.928 119.484 44.856C119.852 43.784 120.38 42.856 121.068 42.072C121.772 41.288 122.636 40.688 123.66 40.272C124.684 39.84 125.86 39.624 127.188 39.624C128.068 39.624 128.916 39.712 129.732 39.888C130.548 40.064 131.276 40.312 131.916 40.632L131.052 42.456C130.524 42.216 129.932 42 129.276 41.808C128.636 41.616 127.932 41.52 127.164 41.52ZM143.576 45.912H139.376V57H137.288V45.912H133.136V44.136H143.576V45.912ZM152.23 43.896C153.814 43.896 155.086 44.448 156.046 45.552C157.022 46.656 157.51 48.32 157.51 50.544C157.51 52 157.286 53.232 156.838 54.24C156.406 55.232 155.79 55.984 154.99 56.496C154.206 56.992 153.278 57.24 152.206 57.24C151.55 57.24 150.966 57.152 150.454 56.976C149.942 56.8 149.502 56.576 149.134 56.304C148.782 56.016 148.478 55.704 148.222 55.368H148.078C148.11 55.64 148.142 55.984 148.174 56.4C148.206 56.816 148.222 57.176 148.222 57.48V62.76H146.11V44.136H147.838L148.126 45.888H148.222C148.478 45.52 148.782 45.184 149.134 44.88C149.502 44.576 149.934 44.336 150.43 44.16C150.942 43.984 151.542 43.896 152.23 43.896ZM151.846 45.672C150.982 45.672 150.286 45.84 149.758 46.176C149.23 46.496 148.846 46.984 148.606 47.64C148.366 48.296 148.238 49.128 148.222 50.136V50.544C148.222 51.6 148.334 52.496 148.558 53.232C148.782 53.968 149.158 54.528 149.686 54.912C150.23 55.296 150.966 55.488 151.894 55.488C152.678 55.488 153.318 55.272 153.814 54.84C154.326 54.408 154.702 53.824 154.942 53.088C155.198 52.336 155.326 51.48 155.326 50.52C155.326 49.048 155.038 47.872 154.462 46.992C153.902 46.112 153.03 45.672 151.846 45.672ZM172.06 50.544C172.06 51.616 171.916 52.568 171.628 53.4C171.356 54.216 170.956 54.912 170.428 55.488C169.916 56.064 169.284 56.504 168.532 56.808C167.796 57.096 166.972 57.24 166.06 57.24C165.212 57.24 164.428 57.096 163.708 56.808C162.988 56.504 162.364 56.064 161.836 55.488C161.308 54.912 160.892 54.216 160.588 53.4C160.3 52.568 160.156 51.616 160.156 50.544C160.156 49.12 160.396 47.92 160.876 46.944C161.356 45.952 162.044 45.2 162.94 44.688C163.836 44.16 164.9 43.896 166.132 43.896C167.3 43.896 168.324 44.16 169.204 44.688C170.1 45.2 170.796 45.952 171.292 46.944C171.804 47.92 172.06 49.12 172.06 50.544ZM162.34 50.544C162.34 51.552 162.468 52.432 162.724 53.184C162.996 53.92 163.412 54.488 163.972 54.888C164.532 55.288 165.244 55.488 166.108 55.488C166.972 55.488 167.684 55.288 168.244 54.888C168.804 54.488 169.212 53.92 169.468 53.184C169.74 52.432 169.876 51.552 169.876 50.544C169.876 49.52 169.74 48.648 169.468 47.928C169.196 47.208 168.78 46.656 168.22 46.272C167.676 45.872 166.964 45.672 166.084 45.672C164.772 45.672 163.82 46.104 163.228 46.968C162.636 47.832 162.34 49.024 162.34 50.544ZM185.823 38.808C185.759 39.608 185.559 40.28 185.223 40.824C184.903 41.368 184.423 41.776 183.783 42.048C183.143 42.32 182.311 42.456 181.287 42.456C180.247 42.456 179.407 42.32 178.767 42.048C178.143 41.776 177.687 41.376 177.399 40.848C177.111 40.304 176.935 39.624 176.871 38.808H178.839C178.919 39.672 179.143 40.256 179.511 40.56C179.895 40.848 180.503 40.992 181.335 40.992C182.071 40.992 182.647 40.84 183.063 40.536C183.495 40.216 183.751 39.64 183.831 38.808H185.823ZM177.399 51.984C177.399 52.128 177.391 52.336 177.375 52.608C177.375 52.864 177.367 53.144 177.351 53.448C177.335 53.736 177.319 54.016 177.303 54.288C177.287 54.544 177.271 54.752 177.255 54.912L184.143 44.136H186.735V57H184.767V49.416C184.767 49.16 184.767 48.824 184.767 48.408C184.783 47.992 184.799 47.584 184.815 47.184C184.831 46.768 184.847 46.456 184.863 46.248L178.023 57H175.407V44.136H177.399V51.984ZM201.869 57L199.805 51.696H193.013L190.973 57H188.789L195.485 39.792H197.429L204.101 57H201.869ZM197.237 44.592C197.189 44.464 197.109 44.232 196.997 43.896C196.885 43.56 196.773 43.216 196.661 42.864C196.565 42.496 196.485 42.216 196.421 42.024C196.341 42.344 196.253 42.672 196.157 43.008C196.077 43.328 195.989 43.624 195.893 43.896C195.813 44.168 195.741 44.4 195.677 44.592L193.733 49.776H199.157L197.237 44.592ZM214.568 45.912H210.368V57H208.28V45.912H204.128V44.136H214.568V45.912ZM228.052 50.544C228.052 51.616 227.908 52.568 227.62 53.4C227.348 54.216 226.948 54.912 226.42 55.488C225.908 56.064 225.276 56.504 224.524 56.808C223.788 57.096 222.964 57.24 222.052 57.24C221.204 57.24 220.42 57.096 219.7 56.808C218.98 56.504 218.356 56.064 217.828 55.488C217.3 54.912 216.884 54.216 216.58 53.4C216.292 52.568 216.148 51.616 216.148 50.544C216.148 49.12 216.388 47.92 216.868 46.944C217.348 45.952 218.036 45.2 218.932 44.688C219.828 44.16 220.892 43.896 222.124 43.896C223.292 43.896 224.316 44.16 225.196 44.688C226.092 45.2 226.788 45.952 227.284 46.944C227.796 47.92 228.052 49.12 228.052 50.544ZM218.332 50.544C218.332 51.552 218.46 52.432 218.716 53.184C218.988 53.92 219.404 54.488 219.964 54.888C220.524 55.288 221.236 55.488 222.1 55.488C222.964 55.488 223.676 55.288 224.236 54.888C224.796 54.488 225.204 53.92 225.46 53.184C225.732 52.432 225.868 51.552 225.868 50.544C225.868 49.52 225.732 48.648 225.46 47.928C225.188 47.208 224.772 46.656 224.212 46.272C223.668 45.872 222.956 45.672 222.076 45.672C220.764 45.672 219.812 46.104 219.22 46.968C218.628 47.832 218.332 49.024 218.332 50.544ZM245.199 44.136V57H243.303V48.792C243.303 48.456 243.311 48.104 243.327 47.736C243.359 47.368 243.391 47.008 243.423 46.656H243.351L239.151 57H237.375L233.295 46.656H233.223C233.255 47.008 233.271 47.368 233.271 47.736C233.287 48.104 233.295 48.48 233.295 48.864V57H231.399V44.136H234.207L238.263 54.48L242.391 44.136H245.199ZM251.778 42.432C251.778 43.312 251.442 44.128 250.77 44.88C250.098 45.632 249.522 46.104 249.042 46.296L248.682 45.792C249.162 45.536 249.562 45.168 249.882 44.688C250.218 44.208 250.41 43.712 250.458 43.2C250.33 43.28 250.122 43.32 249.834 43.32C249.562 43.32 249.322 43.2 249.114 42.96C248.906 42.704 248.802 42.376 248.802 41.976C248.802 41.576 248.946 41.256 249.234 41.016C249.538 40.76 249.906 40.632 250.338 40.632C250.77 40.632 251.114 40.784 251.37 41.088C251.642 41.392 251.778 41.84 251.778 42.432ZM255.642 42.432C255.642 43.312 255.306 44.128 254.634 44.88C253.962 45.632 253.386 46.104 252.906 46.296L252.546 45.792C253.026 45.536 253.426 45.168 253.746 44.688C254.082 44.208 254.274 43.712 254.322 43.2C254.194 43.28 253.986 43.32 253.698 43.32C253.426 43.32 253.186 43.2 252.978 42.96C252.77 42.704 252.666 42.376 252.666 41.976C252.666 41.576 252.81 41.256 253.098 41.016C253.402 40.76 253.77 40.632 254.202 40.632C254.634 40.632 254.978 40.784 255.234 41.088C255.506 41.392 255.642 41.84 255.642 42.432Z" fill="#00202E"/>
</g>
<g filter="url(#filter1_d_178_801)">
<mask id="path-2-inside-1_178_801" fill="white">
<path fill-rule="evenodd" clip-rule="evenodd" d="M69.9728 35.8929C67.1142 28.8059 63.4019 24.5256 59.3445 24.5256C50.3114 24.5256 42.9886 45.7417 42.9886 71.913C42.9886 76.2376 43.1886 80.4269 43.5631 84.4076C40.0574 75.7163 37.8354 62.8036 37.8354 48.3874C37.8354 22.2161 45.1583 1 54.1914 1C61.7319 1 68.0806 15.7838 69.9728 35.8929Z"/>
</mask>
<path fill-rule="evenodd" clip-rule="evenodd" d="M69.9728 35.8929C67.1142 28.8059 63.4019 24.5256 59.3445 24.5256C50.3114 24.5256 42.9886 45.7417 42.9886 71.913C42.9886 76.2376 43.1886 80.4269 43.5631 84.4076C40.0574 75.7163 37.8354 62.8036 37.8354 48.3874C37.8354 22.2161 45.1583 1 54.1914 1C61.7319 1 68.0806 15.7838 69.9728 35.8929Z" fill="#00202E"/>
<path d="M69.9728 35.8929L69.0454 36.267L70.9684 35.7992L69.9728 35.8929ZM43.5631 84.4076L42.6357 84.7817L44.5587 84.3139L43.5631 84.4076ZM59.3445 25.5256C60.9941 25.5256 62.6888 26.3918 64.371 28.2273C66.0532 30.0628 67.6411 32.7854 69.0454 36.267L70.9002 35.5188C69.4459 31.9134 67.7483 28.9523 65.8454 26.876C63.9424 24.7996 61.7523 23.5256 59.3445 23.5256V25.5256ZM43.9886 71.913C43.9886 58.9079 45.8096 47.1764 48.7244 38.7313C50.1835 34.504 51.8982 31.1546 53.7528 28.8818C55.6137 26.6014 57.5091 25.5256 59.3445 25.5256V23.5256C56.6635 23.5256 54.256 25.1019 52.2033 27.6173C50.1444 30.1404 48.3346 33.7307 46.8339 38.0788C43.829 46.7846 41.9886 58.7468 41.9886 71.913H43.9886ZM44.5587 84.3139C44.1872 80.3651 43.9886 76.2071 43.9886 71.913H41.9886C41.9886 76.2682 42.19 80.4888 42.5675 84.5013L44.5587 84.3139ZM44.4905 84.0335C41.0471 75.4966 38.8354 62.7203 38.8354 48.3874H36.8354C36.8354 62.8869 39.0677 75.9359 42.6357 84.7817L44.4905 84.0335ZM38.8354 48.3874C38.8354 35.3823 40.6564 23.6508 43.5713 15.2057C45.0304 10.9784 46.745 7.62894 48.5997 5.35618C50.4606 3.07576 52.3559 2 54.1914 2V0C51.5103 0 49.1028 1.57625 47.0501 4.0917C44.9912 6.6148 43.1815 10.2051 41.6807 14.5532C38.6759 23.259 36.8354 35.2212 36.8354 48.3874H38.8354ZM54.1914 2C55.7252 2 57.2953 2.74744 58.862 4.32813C60.4319 5.91203 61.9317 8.27084 63.2867 11.3125C65.9946 17.391 68.0374 25.9991 68.9772 35.9866L70.9684 35.7992C70.016 25.6776 67.9383 16.8392 65.1136 10.4986C63.7024 7.33065 62.0829 4.73669 60.2825 2.92022C58.4789 1.10054 56.4278 0 54.1914 0V2Z" fill="white" mask="url(#path-2-inside-1_178_801)"/>
</g>
<g filter="url(#filter2_d_178_801)">
<mask id="path-4-inside-2_178_801" fill="white">
<path fill-rule="evenodd" clip-rule="evenodd" d="M30.2177 46.722C25.5097 52.741 23.6592 58.096 25.6878 61.6097C30.2044 69.4326 52.2394 65.1663 74.9045 52.0806C78.6498 49.9182 82.178 47.6503 85.4381 45.3356C79.6641 52.7174 69.5923 61.0981 57.1073 68.3063C34.4423 81.392 12.4072 85.6583 7.89063 77.8353C4.12042 71.3051 13.7491 58.4152 30.2177 46.722Z"/>
</mask>
<path fill-rule="evenodd" clip-rule="evenodd" d="M30.2177 46.722C25.5097 52.741 23.6592 58.096 25.6878 61.6097C30.2044 69.4326 52.2394 65.1663 74.9045 52.0806C78.6498 49.9182 82.178 47.6503 85.4381 45.3356C79.6641 52.7174 69.5923 61.0981 57.1073 68.3063C34.4423 81.392 12.4072 85.6583 7.89063 77.8353C4.12042 71.3051 13.7491 58.4152 30.2177 46.722Z" fill="#00202E"/>
<path d="M30.2177 46.722L31.0054 47.3381L29.6388 45.9066L30.2177 46.722ZM85.4381 45.3356L86.2258 45.9517L84.8592 44.5202L85.4381 45.3356ZM26.5538 61.1097C25.729 59.6811 25.6318 57.7804 26.3803 55.406C27.1287 53.0314 28.6926 50.295 31.0054 47.3381L29.4301 46.1059C27.0349 49.168 25.3194 52.1186 24.4728 54.8047C23.6261 57.4909 23.6179 60.0245 24.8218 62.1097L26.5538 61.1097ZM74.4045 51.2146C63.1417 57.7171 52.0714 62.0059 43.3004 63.7041C38.9098 64.5542 35.1518 64.7439 32.2562 64.2741C29.3509 63.8027 27.4716 62.6992 26.5538 61.1097L24.8218 62.1097C26.1623 64.4315 28.7311 65.7283 31.9359 66.2483C35.1504 66.7698 39.1646 66.542 43.6805 65.6676C52.7224 63.917 64.0022 59.5297 75.4045 52.9466L74.4045 51.2146ZM84.8592 44.5202C81.6251 46.8165 78.1233 49.0675 74.4045 51.2146L75.4045 52.9466C79.1763 50.769 82.7308 48.4842 86.017 46.1509L84.8592 44.5202ZM84.6504 44.7195C78.9791 51.9701 69.0202 60.2737 56.6073 67.4403L57.6073 69.1723C70.1644 61.9225 80.3492 53.4647 86.2258 45.9517L84.6504 44.7195ZM56.6073 67.4403C45.3445 73.9428 34.2743 78.2316 25.5032 79.9298C21.1127 80.7798 17.3546 80.9696 14.459 80.4998C11.5537 80.0284 9.6744 78.9249 8.75666 77.3353L7.02461 78.3353C8.36515 80.6572 10.934 81.954 14.1387 82.474C17.3533 82.9955 21.3674 82.7677 25.8834 81.8933C34.9252 80.1427 46.205 75.7554 57.6073 69.1723L56.6073 67.4403ZM8.75666 77.3353C7.98977 76.0071 7.85199 74.2735 8.43755 72.1264C9.02429 69.9749 10.3172 67.4967 12.2738 64.8024C16.1839 59.4181 22.6173 53.345 30.7967 47.5374L29.6388 45.9066C21.3495 51.7922 14.7342 58.0107 10.6555 63.6272C8.61759 66.4333 7.18091 69.1328 6.50801 71.6002C5.83392 74.072 5.90639 76.3985 7.02461 78.3353L8.75666 77.3353Z" fill="white" mask="url(#path-4-inside-2_178_801)"/>
</g>
<g filter="url(#filter3_d_178_801)">
<mask id="path-6-inside-3_178_801" fill="white">
<path fill-rule="evenodd" clip-rule="evenodd" d="M61.2969 74.5536C68.8636 75.6214 74.4265 74.5466 76.4551 71.0329C80.9717 63.2099 66.2595 46.2602 43.5944 33.1745C39.8492 31.0122 36.1211 29.0907 32.4864 27.4247C41.7662 28.7343 54.0599 33.2664 66.5448 40.4745C89.2098 53.5602 103.922 70.5099 99.4055 78.3329C95.6353 84.8631 79.6579 82.9693 61.2969 74.5536Z"/>
</mask>
<path fill-rule="evenodd" clip-rule="evenodd" d="M61.2969 74.5536C68.8636 75.6214 74.4265 74.5466 76.4551 71.0329C80.9717 63.2099 66.2595 46.2602 43.5944 33.1745C39.8492 31.0122 36.1211 29.0907 32.4864 27.4247C41.7662 28.7343 54.0599 33.2664 66.5448 40.4745C89.2098 53.5602 103.922 70.5099 99.4055 78.3329C95.6353 84.8631 79.6579 82.9693 61.2969 74.5536Z" fill="#00202E"/>
<path d="M61.2969 74.5536L61.4366 73.5634L60.8802 75.4627L61.2969 74.5536ZM32.4864 27.4247L32.6262 26.4345L32.0698 28.3338L32.4864 27.4247ZM75.5891 70.5329C74.7643 71.9614 73.1669 72.996 70.7363 73.535C68.3056 74.0741 65.1538 74.088 61.4366 73.5634L61.1571 75.5438C65.0066 76.087 68.4197 76.0974 71.1693 75.4876C73.919 74.8778 76.1173 73.618 77.3212 71.5329L75.5891 70.5329ZM43.0944 34.0405C54.3572 40.5431 63.6065 47.9858 69.4627 54.7327C72.3941 58.11 74.4375 61.2697 75.4784 64.0122C76.5229 66.764 76.5069 68.9433 75.5891 70.5329L77.3212 71.5329C78.6617 69.211 78.5004 66.3379 77.3483 63.3025C76.1927 60.2579 73.9883 56.8955 70.9731 53.4217C64.9361 46.4666 55.4967 38.8916 44.0944 32.3085L43.0944 34.0405ZM32.0698 28.3338C35.6753 29.9864 39.3756 31.8935 43.0944 34.0405L44.0944 32.3085C40.3227 30.1309 36.5668 28.1949 32.9031 26.5157L32.0698 28.3338ZM32.3467 28.4149C41.4616 29.7012 53.6321 34.174 66.0448 41.3405L67.0448 39.6085C54.4878 32.3587 42.0709 27.7673 32.6262 26.4345L32.3467 28.4149ZM66.0448 41.3405C77.3076 47.8431 86.5568 55.2858 92.4131 62.0327C95.3445 65.41 97.3879 68.5697 98.4288 71.3122C99.4733 74.064 99.4572 76.2433 98.5395 77.8329L100.272 78.8329C101.612 76.511 101.451 73.6379 100.299 70.6025C99.1431 67.5579 96.9386 64.1955 93.9235 60.7217C87.8864 53.7666 78.4471 46.1916 67.0448 39.6085L66.0448 41.3405ZM98.5395 77.8329C97.7726 79.1612 96.3402 80.1472 94.188 80.7137C92.0314 81.2813 89.2387 81.4008 85.9271 81.0534C79.3089 80.3593 70.8328 77.8243 61.7135 73.6445L60.8802 75.4627C70.1219 79.6986 78.815 82.3184 85.7184 83.0425C89.1676 83.4043 92.2237 83.2988 94.697 82.6478C97.1747 81.9957 99.1533 80.7697 100.272 78.8329L98.5395 77.8329Z" fill="white" mask="url(#path-6-inside-3_178_801)"/>
</g>
<g filter="url(#filter4_d_178_801)">
<circle cx="53.8428" cy="50.4771" r="3.27422" fill="#00202E"/>
<circle cx="53.8428" cy="50.4771" r="2.77422" stroke="white"/>
</g>
<defs>
<filter id="filter0_d_178_801" x="107.318" y="38.8081" width="150.324" height="27.9519" filterUnits="userSpaceOnUse" color-interpolation-filters="sRGB">
<feFlood flood-opacity="0" result="BackgroundImageFix"/>
<feColorMatrix in="SourceAlpha" type="matrix" values="0 0 0 0 0 0 0 0 0 0 0 0 0 0 0 0 0 0 127 0" result="hardAlpha"/>
<feOffset dy="2"/>
<feGaussianBlur stdDeviation="1"/>
<feComposite in2="hardAlpha" operator="out"/>
<feColorMatrix type="matrix" values="0 0 0 0 0 0 0 0 0 0 0 0 0 0 0 0 0 0 0.47 0"/>
<feBlend mode="normal" in2="BackgroundImageFix" result="effect1_dropShadow_178_801"/>
<feBlend mode="normal" in="SourceGraphic" in2="effect1_dropShadow_178_801" result="shape"/>
</filter>
<filter id="filter1_d_178_801" x="35.8354" y="0" width="36.1373" height="87.4075" filterUnits="userSpaceOnUse" color-interpolation-filters="sRGB">
<feFlood flood-opacity="0" result="BackgroundImageFix"/>
<feColorMatrix in="SourceAlpha" type="matrix" values="0 0 0 0 0 0 0 0 0 0 0 0 0 0 0 0 0 0 127 0" result="hardAlpha"/>
<feOffset dy="1"/>
<feGaussianBlur stdDeviation="1"/>
<feComposite in2="hardAlpha" operator="out"/>
<feColorMatrix type="matrix" values="0 0 0 0 0 0 0 0 0 0 0 0 0 0 0 0 0 0 0.78 0"/>
<feBlend mode="normal" in2="BackgroundImageFix" result="effect1_dropShadow_178_801"/>
<feBlend mode="normal" in="SourceGraphic" in2="effect1_dropShadow_178_801" result="shape"/>
</filter>
<filter id="filter2_d_178_801" x="5.07568" y="44.3354" width="82.3624" height="40.4153" filterUnits="userSpaceOnUse" color-interpolation-filters="sRGB">
<feFlood flood-opacity="0" result="BackgroundImageFix"/>
<feColorMatrix in="SourceAlpha" type="matrix" values="0 0 0 0 0 0 0 0 0 0 0 0 0 0 0 0 0 0 127 0" result="hardAlpha"/>
<feOffset dy="1"/>
<feGaussianBlur stdDeviation="1"/>
<feComposite in2="hardAlpha" operator="out"/>
<feColorMatrix type="matrix" values="0 0 0 0 0 0 0 0 0 0 0 0 0 0 0 0 0 0 0.78 0"/>
<feBlend mode="normal" in2="BackgroundImageFix" result="effect1_dropShadow_178_801"/>
<feBlend mode="normal" in="SourceGraphic" in2="effect1_dropShadow_178_801" result="shape"/>
</filter>
<filter id="filter3_d_178_801" x="30.4865" y="26.4248" width="71.734" height="58.8235" filterUnits="userSpaceOnUse" color-interpolation-filters="sRGB">
<feFlood flood-opacity="0" result="BackgroundImageFix"/>
<feColorMatrix in="SourceAlpha" type="matrix" values="0 0 0 0 0 0 0 0 0 0 0 0 0 0 0 0 0 0 127 0" result="hardAlpha"/>
<feOffset dy="1"/>
<feGaussianBlur stdDeviation="1"/>
<feComposite in2="hardAlpha" operator="out"/>
<feColorMatrix type="matrix" values="0 0 0 0 0 0 0 0 0 0 0 0 0 0 0 0 0 0 0.78 0"/>
<feBlend mode="normal" in2="BackgroundImageFix" result="effect1_dropShadow_178_801"/>
<feBlend mode="normal" in="SourceGraphic" in2="effect1_dropShadow_178_801" result="shape"/>
</filter>
<filter id="filter4_d_178_801" x="48.5686" y="46.2029" width="10.5485" height="10.5483" filterUnits="userSpaceOnUse" color-interpolation-filters="sRGB">
<feFlood flood-opacity="0" result="BackgroundImageFix"/>
<feColorMatrix in="SourceAlpha" type="matrix" values="0 0 0 0 0 0 0 0 0 0 0 0 0 0 0 0 0 0 127 0" result="hardAlpha"/>
<feOffset dy="1"/>
<feGaussianBlur stdDeviation="1"/>
<feComposite in2="hardAlpha" operator="out"/>
<feColorMatrix type="matrix" values="0 0 0 0 0 0 0 0 0 0 0 0 0 0 0 0 0 0 0.78 0"/>
<feBlend mode="normal" in2="BackgroundImageFix" result="effect1_dropShadow_178_801"/>
<feBlend mode="normal" in="SourceGraphic" in2="effect1_dropShadow_178_801" result="shape"/>
</filter>
</defs>
</svg>
