<svg width="150" height="149" viewBox="0 0 150 149" fill="none" xmlns="http://www.w3.org/2000/svg">
<rect width="150" height="149" rx="40" fill="#A9BDCE"/>
<path d="M74.4375 13C39.9375 13 12 40.8133 12 75.0833C12 109.353 39.9375 137.167 74.4375 137.167C109 137.167 137 109.353 137 75.0833C137 40.8133 109 13 74.4375 13ZM74.5 124.75C46.875 124.75 24.5 102.524 24.5 75.0833C24.5 47.6425 46.875 25.4167 74.5 25.4167C102.125 25.4167 124.5 47.6425 124.5 75.0833C124.5 102.524 102.125 124.75 74.5 124.75ZM77.625 44.0417H68.25V81.2917L101.062 100.848L105.75 93.2117L77.625 76.6354V44.0417Z" fill="black"/>
</svg>
