<svg width="149" height="149" viewBox="0 0 149 149" fill="none" xmlns="http://www.w3.org/2000/svg">
<rect width="149" height="149" rx="40" fill="#A9BDCE"/>
<path d="M22.2083 127.545C29.3292 102.587 34.5194 77.7106 34.6249 53.0449H71.8749C71.9805 77.7106 77.1706 102.587 84.2916 127.545" stroke="black" stroke-width="12" stroke-linecap="round" stroke-linejoin="round"/>
<path d="M74.9792 77.8783H102.917C103.072 94.0944 108.467 110.758 115.333 127.545M53.25 28.2116C54.6603 26.2467 56.5278 24.6547 58.6911 23.573C60.8544 22.4914 63.2485 21.9526 65.6667 22.0033C68.0848 21.9526 70.4789 22.4914 72.6422 23.573C74.8055 24.6547 76.673 26.2467 78.0833 28.2116C79.4937 30.1765 81.3612 31.7685 83.5245 32.8502C85.6878 33.9318 88.0819 34.4706 90.5 34.4199C92.9181 34.4706 95.3122 33.9318 97.4755 32.8502C99.6388 31.7685 101.506 30.1765 102.917 28.2116C104.327 26.2467 106.194 24.6547 108.358 23.573C110.521 22.4914 112.915 21.9526 115.333 22.0033C117.751 21.9526 120.146 22.4914 122.309 23.573C124.472 24.6547 126.34 26.2467 127.75 28.2116M16 127.545H133.958" stroke="black" stroke-width="12" stroke-linecap="round" stroke-linejoin="round"/>
</svg>
