<svg width="150" height="149" viewBox="0 0 150 149" fill="none" xmlns="http://www.w3.org/2000/svg">
<rect width="150" height="149" rx="40" fill="#A9BDCE"/>
<path d="M61.0937 74.6667C57.3437 74.6667 54.2187 73.2698 51.7187 70.476C49.2187 67.6823 48.2292 64.4229 48.75 60.6979L50.7812 45.4875C51.6146 39.5896 54.3229 34.6995 58.9062 30.8172C63.4896 26.9349 68.8542 24.9959 75 25C81.1458 25 86.5104 26.9411 91.0938 30.8234C95.6771 34.7057 98.3854 39.5937 99.2188 45.4875L101.25 60.6979C101.771 64.4229 100.781 67.6823 98.2812 70.476C95.7812 73.2698 92.6562 74.6667 88.9063 74.6667H61.0937ZM61.0937 62.25H88.9063L86.875 47.35C86.4583 44.4528 85.1312 42.0729 82.8937 40.2104C80.6562 38.3479 78.025 37.4167 75 37.4167C71.9792 37.4167 69.3479 38.3479 67.1063 40.2104C64.8646 42.0729 63.5375 44.4528 63.125 47.35L61.0937 62.25ZM25 124.333V106.95C25 103.432 25.9125 100.197 27.7375 97.2464C29.5625 94.2954 31.9833 92.0459 35 90.4979C41.4583 87.2903 48.0208 84.8835 54.6875 83.2776C61.3542 81.6717 68.125 80.8709 75 80.875C81.875 80.875 88.6458 81.6779 95.3125 83.2838C101.979 84.8897 108.542 87.2944 115 90.4979C118.021 92.05 120.444 94.3016 122.269 97.2526C124.094 100.204 125.004 103.436 125 106.95V124.333H25ZM37.5 111.917H112.5V106.95C112.5 105.812 112.212 104.777 111.637 103.846C111.062 102.915 110.308 102.19 109.375 101.673C103.75 98.8792 98.0729 96.7849 92.3438 95.3901C86.6146 93.9953 80.8333 93.2958 75 93.2917C69.1667 93.2917 63.3854 93.9911 57.6563 95.3901C51.9271 96.789 46.25 98.8833 40.625 101.673C39.6875 102.19 38.9313 102.915 38.3563 103.846C37.7813 104.777 37.4958 105.812 37.5 106.95V111.917Z" fill="black"/>
</svg>
