<svg width="37" height="35" viewBox="0 0 37 35" fill="none" xmlns="http://www.w3.org/2000/svg">
<path d="M29.2105 14.9721L26.3868 12.4908L29.5026 9.65496H19.4737V6.11016H29.5026L26.4842 3.36295L29.2105 0.792969L37 7.97118L29.2105 14.9721ZM33.0079 34.4685C28.8211 34.4685 24.7394 33.619 20.7628 31.9198C16.7863 30.2207 13.2648 27.9756 10.1984 25.1847C7.13191 22.3938 4.66525 19.1887 2.79837 15.5694C0.931492 11.9502 -0.00129689 8.23586 1.35328e-06 4.42638C1.35328e-06 3.89466 0.194738 3.45157 0.584212 3.09709C0.973685 2.74261 1.46053 2.56537 2.04474 2.56537H9.93158C10.386 2.56537 10.7917 2.6983 11.1487 2.96416C11.5057 3.23002 11.7167 3.56972 11.7816 3.98328L13.0474 10.1867C13.1123 10.6002 13.1038 10.9772 13.0221 11.3175C12.9403 11.6578 12.754 11.9603 12.4632 12.2249L7.78947 16.5673C9.15263 18.6942 10.8566 20.6881 12.9013 22.5491C14.9461 24.4102 17.2018 26.0201 19.6684 27.3789L24.2447 23.2138C24.5368 22.9479 24.9185 22.7488 25.3898 22.6165C25.8611 22.4842 26.3232 22.4469 26.7763 22.5048L33.4947 23.7455C33.9491 23.8341 34.3224 24.0338 34.6145 24.3446C34.9066 24.6553 35.0526 25.0169 35.0526 25.4293V32.6075C35.0526 33.1392 34.8579 33.5823 34.4684 33.9368C34.0789 34.2913 33.5921 34.4685 33.0079 34.4685Z" fill="#00202E"/>
</svg>
